<?xml version="1.0" encoding="UTF-8"?>
<svg xmlns="http://www.w3.org/2000/svg" xmlns:xlink="http://www.w3.org/1999/xlink" width="80px" height="53px" viewBox="0 0 80 53" version="1.1">
<g id="surface1">
<path style=" stroke:none;fill-rule:nonzero;fill:rgb(0%,0%,0%);fill-opacity:1;" d="M 14.601562 1.054688 C 11.890625 1.585938 11.292969 1.734375 10.503906 2.128906 C 9.996094 2.367188 9.488281 2.5625 9.355469 2.5625 C 9.222656 2.5625 8.921875 2.714844 8.6875 2.910156 C 8.460938 3.109375 7.941406 3.46875 7.523438 3.742188 C 7.121094 3.996094 6.539062 4.464844 6.257812 4.765625 C 5.972656 5.050781 5.542969 5.492188 5.320312 5.699219 C 4.722656 6.273438 3.429688 7.933594 3.429688 8.132812 C 3.429688 8.203125 3.21875 8.613281 2.980469 9.007812 C 2.726562 9.398438 2.53125 9.835938 2.53125 10 C 2.53125 10.152344 2.367188 10.636719 2.175781 11.054688 C 1.488281 12.566406 1.339844 13.636719 1.339844 16.773438 C 1.339844 19.445312 1.371094 19.777344 1.699219 20.816406 C 2.367188 22.882812 2.699219 23.710938 3.070312 24.269531 C 3.261719 24.558594 3.429688 24.875 3.429688 24.949219 C 3.429688 25.023438 3.695312 25.417969 4.023438 25.808594 C 4.351562 26.203125 4.617188 26.5625 4.617188 26.625 C 4.617188 26.773438 6.242188 28.359375 6.390625 28.359375 C 6.480469 28.359375 6.597656 28.449219 6.660156 28.539062 C 6.824219 28.8125 9.070312 30.320312 9.3125 30.320312 C 9.417969 30.320312 9.949219 30.5625 10.515625 30.847656 C 11.085938 31.148438 11.621094 31.34375 11.726562 31.316406 C 11.828125 31.269531 12.171875 31.332031 12.46875 31.4375 C 13.945312 31.949219 15.71875 32.113281 20.410156 32.191406 C 23.421875 32.234375 25.34375 32.328125 25.757812 32.445312 C 27.042969 32.808594 28.292969 34.496094 28.308594 35.871094 C 28.308594 36.941406 27.398438 38.375 26.28125 39.082031 C 25.757812 39.398438 25.714844 39.398438 19.621094 39.308594 C 16.242188 39.265625 11.5625 39.171875 9.191406 39.128906 L 4.917969 39.039062 L 4.917969 40.710938 C 4.917969 41.617188 4.976562 42.402344 5.035156 42.445312 C 5.183594 42.539062 10.117188 42.660156 18.402344 42.777344 C 25.96875 42.871094 26.429688 42.839844 28.203125 41.875 C 28.828125 41.542969 29.378906 41.148438 29.425781 41.015625 C 29.46875 40.878906 29.664062 40.695312 29.855469 40.609375 C 30.066406 40.515625 30.289062 40.214844 30.394531 39.914062 C 30.484375 39.613281 30.617188 39.371094 30.675781 39.371094 C 30.734375 39.371094 30.945312 39.050781 31.152344 38.660156 C 31.480469 37.996094 31.511719 37.757812 31.511719 35.828125 C 31.511719 33.742188 31.511719 33.699219 31.066406 32.960938 C 30.824219 32.535156 30.542969 32.023438 30.453125 31.8125 C 30.363281 31.601562 29.886719 31.089844 29.410156 30.683594 C 28.917969 30.273438 28.488281 29.894531 28.441406 29.824219 C 28.394531 29.761719 27.996094 29.582031 27.550781 29.414062 C 25.820312 28.765625 25.089844 28.660156 22.378906 28.660156 C 20.933594 28.660156 18.402344 28.585938 16.761719 28.507812 C 14.320312 28.386719 13.617188 28.300781 12.886719 28.039062 C 12.394531 27.859375 11.917969 27.648438 11.84375 27.589844 C 11.753906 27.527344 11.324219 27.332031 10.863281 27.167969 C 10.398438 26.984375 9.90625 26.714844 9.757812 26.550781 C 9.609375 26.382812 9.417969 26.246094 9.3125 26.246094 C 9.027344 26.246094 6.703125 23.804688 6.703125 23.5 C 6.703125 23.351562 6.644531 23.230469 6.585938 23.230469 C 6.421875 23.230469 5.75 21.855469 5.496094 21.042969 C 5.40625 20.710938 5.214844 20.167969 5.09375 19.835938 C 4.945312 19.457031 4.839844 18.507812 4.796875 17.257812 C 4.738281 15.582031 4.78125 15.070312 5.050781 13.9375 C 5.632812 11.523438 6.300781 9.988281 7.253906 8.914062 C 8.476562 7.511719 9.207031 6.789062 9.386719 6.789062 C 9.488281 6.789062 9.800781 6.574219 10.085938 6.335938 C 10.355469 6.078125 10.710938 5.882812 10.875 5.882812 C 11.023438 5.882812 11.1875 5.820312 11.234375 5.746094 C 11.382812 5.507812 13.453125 4.824219 14.300781 4.75 C 15.136719 4.660156 26.519531 4.660156 26.667969 4.75 C 26.714844 4.765625 32.984375 4.824219 40.597656 4.886719 C 48.226562 4.933594 56.285156 5.023438 58.507812 5.066406 C 61.90625 5.160156 62.574219 5.128906 62.632812 4.964844 C 62.769531 4.570312 62.855469 1.886719 62.753906 1.707031 C 62.648438 1.554688 55.09375 1.433594 26.59375 1.132812 C 22.421875 1.085938 18.160156 1.023438 17.132812 0.996094 C 16.105469 0.964844 14.972656 0.996094 14.601562 1.054688 Z M 14.601562 1.054688 "/>
<path style=" stroke:none;fill-rule:nonzero;fill:rgb(0%,0%,0%);fill-opacity:1;" d="M 67.730469 4.175781 C 67.671875 5.578125 67.535156 9.941406 67.417969 13.878906 C 67.074219 25.25 66.910156 29.113281 66.761719 29.113281 C 66.703125 29.113281 66.433594 28.71875 66.164062 28.238281 C 65.894531 27.769531 65.613281 27.269531 65.539062 27.152344 C 65.480469 27.03125 65.167969 26.503906 64.855469 25.976562 C 64.542969 25.449219 64.183594 24.84375 64.066406 24.617188 C 63.929688 24.390625 63.648438 23.910156 63.410156 23.546875 C 63.1875 23.183594 62.917969 22.6875 62.84375 22.460938 C 62.769531 22.21875 62.632812 22.023438 62.574219 22.023438 C 62.5 22.023438 62.308594 21.707031 62.113281 21.300781 C 61.933594 20.90625 61.636719 20.378906 61.457031 20.136719 C 61.28125 19.878906 61.027344 19.472656 60.90625 19.230469 C 60.382812 18.191406 59.683594 16.96875 59.59375 16.894531 C 59.535156 16.847656 59.265625 16.414062 59 15.914062 C 58.730469 15.417969 58.390625 14.84375 58.238281 14.648438 C 58.078125 14.449219 57.957031 14.164062 57.957031 14.015625 C 57.957031 13.757812 58.136719 13.726562 60.234375 13.695312 L 62.5 13.652344 L 62.542969 11.871094 L 62.589844 10.109375 L 58.820312 10.109375 C 56.75 10.089844 53.394531 10.0625 51.371094 10 L 47.703125 9.925781 L 47.617188 10.574219 C 47.570312 10.9375 47.496094 13.0625 47.453125 15.308594 C 47.40625 17.542969 47.300781 22.296875 47.230469 25.867188 C 47.152344 29.429688 47.050781 34.015625 47.003906 36.050781 C 46.902344 41.269531 46.796875 45.511719 46.691406 48.527344 C 46.648438 49.945312 46.675781 51.136719 46.738281 51.179688 C 46.8125 51.226562 47.570312 51.300781 48.449219 51.359375 C 49.910156 51.453125 50.03125 51.4375 50.121094 51.179688 C 50.164062 51.03125 50.269531 48.027344 50.355469 44.5 C 50.445312 40.96875 50.582031 35.75 50.65625 32.882812 C 50.730469 30.015625 50.804688 27.078125 50.804688 26.335938 C 50.804688 25.007812 50.804688 24.992188 51.105469 25.265625 C 51.265625 25.417969 51.402344 25.613281 51.402344 25.703125 C 51.402344 25.808594 51.59375 26.109375 51.847656 26.398438 C 52.085938 26.683594 52.28125 27 52.292969 27.089844 C 52.292969 27.199219 52.515625 27.605469 52.785156 28.027344 C 53.410156 28.992188 53.785156 29.609375 54.1875 30.363281 C 54.378906 30.699219 54.691406 31.238281 54.902344 31.539062 C 55.109375 31.859375 55.273438 32.160156 55.273438 32.21875 C 55.273438 32.265625 55.511719 32.640625 55.796875 33.035156 C 56.078125 33.425781 56.316406 33.804688 56.316406 33.851562 C 56.316406 33.910156 56.539062 34.285156 56.808594 34.695312 C 57.0625 35.085938 57.554688 35.871094 57.878906 36.425781 C 58.207031 36.972656 58.625 37.605469 58.789062 37.832031 C 58.96875 38.058594 59.253906 38.511719 59.429688 38.84375 C 59.609375 39.171875 59.9375 39.761719 60.160156 40.140625 C 60.382812 40.53125 60.773438 41.195312 61.011719 41.632812 C 61.261719 42.070312 61.605469 42.613281 61.800781 42.839844 C 61.976562 43.066406 62.125 43.320312 62.125 43.414062 C 62.125 43.488281 62.246094 43.714844 62.394531 43.910156 C 62.542969 44.109375 62.828125 44.574219 63.035156 44.949219 C 63.230469 45.328125 63.542969 45.824219 63.738281 46.066406 C 63.917969 46.292969 64.199219 46.777344 64.363281 47.125 C 64.511719 47.484375 64.75 47.859375 64.882812 47.96875 C 65.003906 48.074219 65.105469 48.253906 65.105469 48.375 C 65.105469 48.496094 65.269531 48.8125 65.464844 49.070312 C 65.660156 49.339844 65.957031 49.824219 66.136719 50.15625 C 66.296875 50.484375 66.597656 50.941406 66.792969 51.179688 L 67.132812 51.585938 L 72.230469 51.695312 C 75.03125 51.738281 77.324219 51.753906 77.339844 51.722656 C 77.355469 51.632812 77.578125 47.289062 77.757812 43.59375 C 78.171875 35.3125 78.457031 28.675781 78.960938 15.308594 C 79.039062 13.152344 79.15625 9.246094 79.203125 6.621094 L 79.308594 1.855469 L 77.933594 1.78125 C 77.175781 1.734375 76.429688 1.734375 76.265625 1.765625 C 75.894531 1.871094 75.863281 2.15625 75.757812 6.652344 C 75.714844 8.777344 75.640625 11.117188 75.609375 11.855469 C 75.550781 13.226562 75.445312 16.199219 75.3125 20.667969 C 75.269531 22.039062 75.191406 23.804688 75.164062 24.585938 C 75.042969 26.972656 74.792969 33.546875 74.71875 36.277344 C 74.671875 37.679688 74.613281 39.578125 74.566406 40.5 C 74.523438 41.40625 74.464844 42.945312 74.417969 43.894531 C 74.3125 46.386719 74.195312 48.179688 74.121094 48.238281 C 74.09375 48.269531 72.945312 48.300781 71.558594 48.285156 C 68.742188 48.253906 68.996094 48.359375 68.21875 46.914062 C 67.652344 45.871094 66.253906 43.488281 65.894531 42.992188 C 65.433594 42.339844 64.511719 40.757812 64.511719 40.609375 C 64.511719 40.53125 64.40625 40.382812 64.273438 40.261719 C 64.152344 40.152344 63.871094 39.71875 63.660156 39.308594 C 63.453125 38.886719 63.171875 38.40625 63.023438 38.238281 C 62.796875 37.96875 62.144531 36.820312 61.5625 35.671875 C 61.441406 35.417969 61.1875 35.054688 61.011719 34.84375 C 60.816406 34.632812 60.402344 33.9375 60.054688 33.289062 C 59.730469 32.65625 59.253906 31.828125 59 31.464844 C 58.761719 31.089844 58.550781 30.742188 58.550781 30.664062 C 58.550781 30.605469 58.3125 30.242188 58.03125 29.894531 C 57.746094 29.535156 57.476562 29.082031 57.417969 28.914062 C 57.375 28.734375 57.179688 28.375 56.988281 28.132812 C 56.808594 27.875 56.617188 27.546875 56.554688 27.363281 C 56.511719 27.199219 56.332031 26.910156 56.183594 26.742188 C 56.019531 26.578125 55.71875 26.097656 55.527344 25.6875 C 55.320312 25.28125 55.035156 24.859375 54.917969 24.753906 C 54.78125 24.632812 54.679688 24.453125 54.679688 24.347656 C 54.679688 24.226562 54.410156 23.742188 54.082031 23.273438 C 53.753906 22.792969 53.484375 22.339844 53.484375 22.261719 C 53.484375 22.1875 53.324219 21.917969 53.128906 21.660156 C 52.933594 21.40625 52.652344 20.921875 52.472656 20.574219 C 52.308594 20.242188 52.054688 19.878906 51.9375 19.777344 C 51.800781 19.65625 51.699219 19.472656 51.699219 19.367188 C 51.699219 19.246094 51.550781 18.902344 51.355469 18.582031 C 51.027344 18.054688 51.011719 17.933594 51.085938 15.835938 L 51.175781 13.652344 L 52.355469 13.652344 C 53.664062 13.652344 53.441406 13.484375 54.441406 15.175781 C 54.679688 15.582031 55.066406 16.214844 55.304688 16.578125 C 55.527344 16.953125 55.71875 17.300781 55.71875 17.359375 C 55.71875 17.421875 55.929688 17.800781 56.199219 18.207031 C 56.464844 18.597656 56.792969 19.125 56.929688 19.382812 C 57.824219 21.042969 58.179688 21.675781 58.34375 21.871094 C 58.449219 21.992188 58.730469 22.476562 58.96875 22.945312 C 59.207031 23.394531 59.652344 24.179688 59.96875 24.679688 C 60.296875 25.160156 60.699219 25.867188 60.863281 26.246094 C 61.039062 26.625 61.292969 27.015625 61.429688 27.136719 C 61.578125 27.242188 61.679688 27.40625 61.679688 27.484375 C 61.679688 27.558594 62.082031 28.300781 62.574219 29.128906 C 63.082031 29.941406 63.542969 30.785156 63.617188 30.984375 C 63.691406 31.195312 63.988281 31.660156 64.273438 32.054688 C 64.570312 32.445312 64.808594 32.824219 64.808594 32.914062 C 64.808594 33.003906 64.972656 33.304688 65.179688 33.578125 C 65.390625 33.851562 65.554688 34.136719 65.554688 34.210938 C 65.554688 34.285156 65.730469 34.617188 65.957031 34.933594 C 66.164062 35.253906 66.492188 35.792969 66.671875 36.125 C 67 36.746094 67.746094 37.996094 68.324219 38.917969 C 68.503906 39.203125 68.699219 39.597656 68.757812 39.777344 C 68.800781 39.972656 68.90625 40.125 68.964844 40.125 C 69.027344 40.125 69.191406 40.394531 69.339844 40.726562 C 69.664062 41.484375 69.875 41.496094 69.875 40.757812 C 69.875 40.453125 69.933594 38.570312 70.023438 36.582031 C 70.308594 29.566406 70.457031 25.539062 70.542969 23.230469 C 70.949219 11.132812 71.1875 1.945312 71.109375 1.765625 C 71.066406 1.707031 70.324219 1.660156 69.441406 1.660156 L 67.835938 1.660156 Z M 67.730469 4.175781 "/>
<path style=" stroke:none;fill-rule:nonzero;fill:rgb(0%,0%,0%);fill-opacity:1;" d="M 16.089844 9.789062 C 15.882812 9.867188 15.511719 9.925781 15.257812 9.941406 C 14.796875 9.953125 13.484375 10.800781 12.53125 11.691406 C 12.261719 11.929688 11.785156 12.699219 11.457031 13.367188 C 10.875 14.601562 10.875 14.617188 10.875 16.441406 C 10.875 18.25 10.890625 18.328125 11.398438 19.382812 C 12.230469 21.148438 13.320312 22.082031 15.644531 23.050781 C 16.242188 23.289062 20.578125 23.5 25.269531 23.515625 L 28.261719 23.53125 L 29.886719 24.058594 C 31.511719 24.585938 33.730469 25.839844 33.921875 26.335938 C 33.96875 26.457031 34.070312 26.550781 34.175781 26.550781 C 34.355469 26.550781 35.355469 27.648438 35.652344 28.160156 C 35.757812 28.328125 36.011719 28.75 36.246094 29.082031 C 36.472656 29.429688 36.648438 29.808594 36.648438 29.929688 C 36.648438 30.046875 36.785156 30.46875 36.949219 30.847656 C 37.5 32.144531 37.691406 33.835938 37.542969 35.871094 C 37.335938 38.675781 36.769531 40.679688 35.773438 42.132812 C 35.519531 42.507812 35.308594 42.855469 35.308594 42.914062 C 35.308594 43.113281 33.941406 44.621094 33.582031 44.800781 C 33.390625 44.921875 33.226562 45.085938 33.226562 45.207031 C 33.226562 45.3125 33.132812 45.402344 33.015625 45.402344 C 32.910156 45.402344 32.570312 45.597656 32.257812 45.855469 C 31.945312 46.097656 31.597656 46.308594 31.496094 46.308594 C 31.390625 46.308594 31.125 46.398438 30.882812 46.519531 C 30.660156 46.640625 30.289062 46.804688 30.066406 46.898438 C 29.828125 46.984375 29.5 47.140625 29.320312 47.214844 C 28.859375 47.425781 27.53125 47.5 23.539062 47.5 C 19.351562 47.515625 10.011719 47.394531 7.195312 47.273438 L 5.066406 47.199219 L 5.066406 50.683594 L 7.269531 50.699219 C 8.476562 50.699219 9.742188 50.726562 10.101562 50.757812 C 10.460938 50.789062 14.585938 50.832031 19.265625 50.863281 C 27.160156 50.910156 27.890625 50.894531 29.273438 50.621094 C 30.09375 50.457031 31.199219 50.140625 31.71875 49.898438 C 32.242188 49.671875 32.730469 49.476562 32.808594 49.476562 C 32.882812 49.476562 33.285156 49.234375 33.714844 48.949219 C 34.132812 48.664062 34.566406 48.421875 34.652344 48.421875 C 34.757812 48.421875 35.011719 48.207031 35.207031 47.96875 C 35.414062 47.710938 35.652344 47.515625 35.710938 47.515625 C 35.785156 47.515625 36.144531 47.214844 36.5 46.835938 C 36.859375 46.457031 37.21875 46.15625 37.273438 46.15625 C 37.335938 46.15625 37.410156 47.289062 37.425781 48.691406 L 37.46875 51.210938 L 40.746094 51.210938 L 40.851562 50.078125 C 40.894531 49.460938 41.03125 44.46875 41.121094 38.992188 C 41.210938 33.515625 41.34375 26.15625 41.417969 22.625 C 41.492188 19.097656 41.566406 14.8125 41.566406 13.105469 L 41.566406 10 L 37.515625 9.910156 C 30.199219 9.730469 16.476562 9.652344 16.089844 9.789062 Z M 27.636719 13.347656 C 32.972656 13.394531 37.46875 13.46875 37.664062 13.515625 L 38.003906 13.589844 L 37.902344 19.050781 C 37.84375 22.054688 37.753906 24.601562 37.691406 24.707031 C 37.621094 24.859375 37.394531 24.738281 36.859375 24.226562 C 35.578125 23.035156 35.445312 22.914062 34.460938 22.308594 C 33.226562 21.542969 30.347656 20.363281 29.707031 20.363281 C 29.441406 20.363281 28.753906 20.257812 28.1875 20.136719 C 27.457031 19.984375 25.984375 19.910156 23.152344 19.898438 C 17.921875 19.851562 16.804688 19.757812 15.894531 19.324219 C 15.496094 19.125 15.136719 18.855469 15.078125 18.71875 C 15.03125 18.582031 14.867188 18.296875 14.71875 18.085938 C 14.554688 17.875 14.390625 17.316406 14.347656 16.847656 C 14.226562 15.671875 14.585938 14.796875 15.554688 13.847656 C 16.3125 13.105469 16.3125 13.09375 17.132812 13.183594 C 17.582031 13.226562 22.320312 13.304688 27.636719 13.347656 Z M 27.636719 13.347656 "/>
</g>
</svg>
